<svg width="437" height="145" viewBox="0 0 437 145" fill="none" xmlns="http://www.w3.org/2000/svg">
<path d="M62.8523 109.733C66.5113 102.686 72.9628 82.6841 69.4963 59.0523C65.1633 29.5125 52.7419 27.7749 55.3417 2C47.8311 9.1436 33.272 28.7016 35.1208 49.7849C37.4318 76.139 82.7844 86.2752 51.5864 102.493C20.3884 118.711 4.78946 121.897 7.67816 135.219C10.5669 148.54 57.3638 142.169 74.696 135.219C92.0282 128.268 111.094 118.421 97.2279 100.755C83.3621 83.0895 27.8991 96.9906 18.6552 100.755C9.41138 104.52 -4.74325 113.788 5.65607 120.449C16.0554 127.11 50.4309 127.978 69.4963 124.213C88.5618 120.449 98.6722 113.208 91.4505 102.493" stroke="#D0CEB8" stroke-width="4" stroke-linejoin="round"/>
<path d="M433.237 110.314C433.432 110.119 433.675 110.119 433.967 110.314C434.259 110.509 434.357 110.801 434.259 111.19C432.215 114.013 430.171 116.105 428.127 117.468C426.181 118.831 424.526 119.512 423.163 119.512C422.287 119.512 421.557 119.074 420.973 118.198C420.487 117.322 420.146 116.154 419.951 114.694C419.854 113.137 419.903 111.433 420.097 109.584C420.389 107.637 420.827 105.642 421.411 103.598C418.783 107.686 416.009 111.239 413.089 114.256C410.169 117.176 407.347 118.928 404.621 119.512C402.869 119.512 401.361 118.685 400.095 117.03C398.927 115.278 398.343 112.601 398.343 109C398.343 105.788 398.976 102.625 400.241 99.51C401.604 96.298 403.405 93.4267 405.643 90.896C407.882 88.268 410.461 86.1753 413.381 84.618C416.301 83.0607 419.367 82.282 422.579 82.282C424.331 82.282 425.84 82.4767 427.105 82.866C428.371 83.2553 429.539 83.8393 430.609 84.618C431.193 84.1313 431.972 83.6933 432.945 83.304C434.016 82.8173 434.989 82.574 435.865 82.574C436.352 82.574 436.498 82.8173 436.303 83.304C434.065 86.0293 432.118 89.0467 430.463 92.356C428.906 95.6653 427.689 98.8773 426.813 101.992C425.937 105.107 425.353 107.881 425.061 110.314C424.867 112.65 425.061 114.256 425.645 115.132C426.132 115.813 427.008 115.862 428.273 115.278C429.539 114.597 431.193 112.942 433.237 110.314ZM407.833 114.548C408.904 114.548 410.267 113.818 411.921 112.358C413.673 110.801 415.474 108.805 417.323 106.372C419.173 103.939 420.973 101.213 422.725 98.196C424.575 95.0813 426.181 91.9667 427.543 88.852C427.154 87.5867 426.229 86.5647 424.769 85.786C423.407 85.0073 421.801 84.618 419.951 84.618C417.81 84.618 415.766 85.202 413.819 86.37C411.97 87.4407 410.315 88.998 408.855 91.042C407.395 92.9887 406.227 95.3247 405.351 98.05C404.475 100.775 404.037 103.793 404.037 107.102C404.037 109.243 404.378 111.044 405.059 112.504C405.838 113.867 406.763 114.548 407.833 114.548Z" fill="#D0CEB8"/>
<path d="M392.501 110.168C392.793 109.973 393.085 109.973 393.377 110.168C393.669 110.363 393.766 110.655 393.669 111.044C392.014 113.283 390.165 115.278 388.121 117.03C386.174 118.685 384.325 119.512 382.573 119.512C379.556 119.512 378.047 117.565 378.047 113.672C378.047 110.363 378.631 106.713 379.799 102.722C380.967 98.634 382.573 94.546 384.617 90.458C385.006 89.7767 385.201 89.0953 385.201 88.414C385.201 87.3433 384.714 86.808 383.741 86.808C380.14 86.808 376.149 89.29 371.769 94.254C367.486 99.218 363.496 107.005 359.797 117.614C359.602 118.198 359.067 118.685 358.191 119.074C357.315 119.366 356.488 119.512 355.709 119.512C354.638 119.512 354.249 119.074 354.541 118.198C356.196 114.013 357.899 109.292 359.651 104.036C361.5 98.78 363.106 93.5727 364.469 88.414C364.858 86.5647 364.518 85.64 363.447 85.64C362.474 85.64 361.5 86.1267 360.527 87.1C359.554 88.0733 358.532 89.3387 357.461 90.896C357.266 91.0907 357.023 91.042 356.731 90.75C356.536 90.458 356.488 90.166 356.585 89.874C357.656 88.2193 359.116 86.516 360.965 84.764C362.814 83.012 364.81 82.136 366.951 82.136C369.384 82.136 370.212 83.7907 369.433 87.1C369.044 89.2413 368.508 91.5287 367.827 93.962C367.146 96.298 366.416 98.634 365.637 100.97C367 98.342 368.606 95.86 370.455 93.524C372.304 91.188 374.202 89.1927 376.149 87.538C378.193 85.8833 380.188 84.5693 382.135 83.596C384.179 82.6227 386.077 82.136 387.829 82.136C388.997 82.136 389.873 82.428 390.457 83.012C391.138 83.596 391.479 84.2773 391.479 85.056C391.479 86.3213 391.187 87.5867 390.603 88.852C388.559 92.5507 386.807 96.444 385.347 100.532C383.984 104.523 383.303 108.221 383.303 111.628C383.303 114.061 384.082 115.278 385.639 115.278C387.683 115.278 389.97 113.575 392.501 110.168Z" fill="#D0CEB8"/>
<path d="M337.107 92.356C336.815 92.5507 336.523 92.502 336.231 92.21C336.036 91.8207 336.036 91.48 336.231 91.188C337.593 89.8253 339.443 88.268 341.779 86.516C344.115 84.764 346.451 83.304 348.787 82.136C349.565 82.136 349.955 82.574 349.955 83.45C348.689 85.6887 347.424 88.122 346.159 90.75C344.991 93.378 343.92 96.006 342.947 98.634C342.071 101.165 341.341 103.647 340.757 106.08C340.173 108.416 339.881 110.363 339.881 111.92C339.881 113.964 340.562 114.986 341.925 114.986C342.995 114.986 344.017 114.548 344.991 113.672C346.061 112.699 347.278 111.433 348.641 109.876C348.835 109.681 349.079 109.73 349.371 110.022C349.663 110.314 349.711 110.655 349.517 111.044C347.765 113.185 345.867 115.132 343.823 116.884C341.876 118.636 340.027 119.512 338.275 119.512C335.744 119.512 334.479 117.906 334.479 114.694C334.479 112.845 334.771 110.655 335.355 108.124C336.036 105.496 336.863 102.868 337.837 100.24C338.81 97.612 339.881 95.0813 341.049 92.648C342.314 90.2147 343.531 88.122 344.699 86.37C343.628 87.1487 342.265 88.1707 340.611 89.436C339.053 90.604 337.885 91.5773 337.107 92.356ZM350.247 75.858C349.955 76.15 349.663 76.1987 349.371 76.004C349.176 75.712 349.03 75.3713 348.933 74.982C348.835 74.4953 348.787 73.96 348.787 73.376C348.787 72.792 348.933 72.3053 349.225 71.916C351.755 68.412 355.308 64.6647 359.883 60.674C360.175 60.5767 360.467 60.674 360.759 60.966C361.051 61.1607 361.099 61.3553 360.905 61.55C358.861 63.3993 356.914 65.638 355.065 68.266C353.215 70.7967 351.609 73.3273 350.247 75.858Z" fill="#D0CEB8"/>
<path d="M321.18 88.852C321.18 86.808 320.45 85.786 318.99 85.786C317.53 85.786 315.924 86.516 314.172 87.976C312.42 89.436 310.571 91.5287 308.624 94.254C306.775 96.9793 304.877 100.337 302.93 104.328C301.081 108.221 299.28 112.65 297.528 117.614C297.333 118.198 296.798 118.685 295.922 119.074C295.143 119.366 294.365 119.512 293.586 119.512C292.418 119.512 291.98 119.074 292.272 118.198C292.856 116.446 293.635 114.256 294.608 111.628C295.679 109 296.652 106.323 297.528 103.598C298.501 100.775 299.329 98.1473 300.01 95.714C300.691 93.2807 301.032 91.3827 301.032 90.02C301.032 87.2947 300.205 85.932 298.55 85.932C296.019 85.932 292.807 88.6573 288.914 94.108C285.021 99.5587 281.322 107.394 277.818 117.614C277.623 118.198 277.185 118.685 276.504 119.074C275.823 119.366 275.093 119.512 274.314 119.512C273.827 119.512 273.438 119.415 273.146 119.22C272.854 119.025 272.805 118.685 273 118.198C273.779 116.057 274.606 113.721 275.482 111.19C276.358 108.562 277.234 105.934 278.11 103.306C278.986 100.678 279.765 98.0987 280.446 95.568C281.225 93.0373 281.857 90.6527 282.344 88.414C282.831 86.662 282.587 85.786 281.614 85.786C280.835 85.786 279.911 86.3213 278.84 87.392C277.769 88.4627 276.699 89.728 275.628 91.188C275.336 91.3827 275.044 91.3827 274.752 91.188C274.46 90.896 274.411 90.604 274.606 90.312C276.066 88.268 277.672 86.4187 279.424 84.764C281.273 83.012 283.123 82.136 284.972 82.136C286.237 82.136 287.016 82.6227 287.308 83.596C287.697 84.5693 287.746 85.7373 287.454 87.1C286.967 89.2413 286.481 91.2367 285.994 93.086C285.605 94.838 285.069 96.6387 284.388 98.488C286.919 93.6213 289.693 89.6793 292.71 86.662C295.825 83.6447 298.891 82.136 301.908 82.136C303.076 82.136 304.001 82.574 304.682 83.45C305.461 84.326 305.85 85.5427 305.85 87.1C305.85 89.144 305.655 91.188 305.266 93.232C304.877 95.276 304.293 97.3687 303.514 99.51C306.434 93.962 309.549 89.6793 312.858 86.662C316.265 83.6447 319.623 82.136 322.932 82.136C324.003 82.136 324.879 82.5253 325.56 83.304C326.241 84.0827 326.582 85.1047 326.582 86.37C326.582 88.122 326.193 90.0687 325.414 92.21C324.733 94.254 323.954 96.3953 323.078 98.634C322.202 100.873 321.375 103.111 320.596 105.35C319.915 107.491 319.574 109.535 319.574 111.482C319.574 113.915 320.304 115.132 321.764 115.132C323.321 115.132 325.463 113.526 328.188 110.314C328.383 110.119 328.577 110.168 328.772 110.46C329.064 110.752 329.113 111.093 328.918 111.482C328.334 112.261 327.604 113.137 326.728 114.11C325.852 114.986 324.927 115.862 323.954 116.738C323.078 117.517 322.105 118.198 321.034 118.782C319.963 119.269 318.941 119.512 317.968 119.512C315.729 119.512 314.61 117.663 314.61 113.964C314.61 111.628 314.951 109.292 315.632 106.956C316.313 104.523 317.043 102.235 317.822 100.094C318.698 97.8553 319.477 95.7627 320.158 93.816C320.839 91.8693 321.18 90.2147 321.18 88.852Z" fill="#D0CEB8"/>
<path d="M235.065 119.512C233.8 119.512 232.68 118.928 231.707 117.76C230.734 116.495 230.247 114.889 230.247 112.942C230.247 111.385 230.442 109.584 230.831 107.54C231.318 105.399 231.902 103.16 232.583 100.824C233.362 98.488 234.286 96.152 235.357 93.816C236.428 91.48 237.644 89.29 239.007 87.246C237.936 88.0247 236.817 88.9007 235.649 89.874C234.481 90.75 233.508 91.5773 232.729 92.356C232.437 92.5507 232.194 92.502 231.999 92.21C231.804 91.8207 231.756 91.48 231.853 91.188C232.534 90.5067 233.41 89.728 234.481 88.852C235.552 87.976 236.671 87.1 237.839 86.224C239.104 85.348 240.37 84.5207 241.635 83.742C242.998 82.866 244.263 82.136 245.431 81.552C245.82 81.4547 246.112 81.552 246.307 81.844C246.599 82.136 246.696 82.4767 246.599 82.866C243.484 86.8567 240.954 91.2853 239.007 96.152C237.158 100.921 236.233 105.496 236.233 109.876C236.233 112.699 237.06 114.11 238.715 114.11C239.98 114.11 241.538 113.283 243.387 111.628C245.334 109.876 247.329 107.637 249.373 104.912C251.417 102.089 253.461 98.926 255.505 95.422C257.646 91.918 259.593 88.3653 261.345 84.764C261.637 84.0827 262.172 83.4987 262.951 83.012C263.827 82.428 264.752 82.136 265.725 82.136C266.99 82.136 267.428 82.5253 267.039 83.304C265.676 85.8347 264.46 88.2193 263.389 90.458C262.318 92.5993 261.442 94.7407 260.761 96.882C260.08 99.0233 259.544 101.213 259.155 103.452C258.863 105.691 258.717 108.124 258.717 110.752C258.717 113.867 259.593 115.424 261.345 115.424C262.124 115.424 263 115.035 263.973 114.256C264.946 113.38 265.92 112.261 266.893 110.898C267.185 110.703 267.477 110.703 267.769 110.898C268.061 111.093 268.11 111.433 267.915 111.92C266.552 113.964 264.946 115.765 263.097 117.322C261.345 118.782 259.642 119.512 257.987 119.512C256.722 119.512 255.651 118.879 254.775 117.614C253.899 116.349 253.461 114.645 253.461 112.504C253.461 110.168 253.656 107.686 254.045 105.058C254.532 102.333 255.262 99.6073 256.235 96.882C254.386 100.483 252.439 103.695 250.395 106.518C248.351 109.243 246.356 111.579 244.409 113.526C242.56 115.473 240.808 116.981 239.153 118.052C237.498 119.025 236.136 119.512 235.065 119.512Z" fill="#D0CEB8"/>
<path d="M225.98 25.488C229.095 25.488 231.431 26.51 232.988 28.554C234.643 30.598 235.47 33.1287 235.47 36.146C235.47 38.0927 235.129 40.1367 234.448 42.278C233.767 44.4193 232.988 46.366 232.112 48.118C231.723 48.41 231.333 48.5073 230.944 48.41C230.652 48.2153 230.555 47.8747 230.652 47.388C231.333 45.636 231.674 43.8353 231.674 41.986C231.674 40.1367 231.285 38.482 230.506 37.022C229.825 35.4647 228.657 34.1993 227.002 33.226C225.445 32.2527 223.449 31.766 221.016 31.766C217.512 31.766 214.3 32.4473 211.38 33.81C208.46 35.0753 205.735 37.3627 203.204 40.672C200.771 43.9813 198.435 48.5073 196.196 54.25C193.957 59.8953 191.719 67.098 189.48 75.858C187.631 82.866 185.489 88.998 183.056 94.254C180.623 99.51 177.8 103.939 174.588 107.54C178.773 109.195 183.153 110.655 187.728 111.92C192.4 113.185 197.607 113.818 203.35 113.818C207.925 113.818 211.672 113.039 214.592 111.482C217.609 109.827 220.237 106.761 222.476 102.284C222.865 102.089 223.206 102.138 223.498 102.43C223.79 102.625 223.839 102.965 223.644 103.452C221.308 108.708 218.193 112.699 214.3 115.424C210.407 118.149 205.199 119.512 198.678 119.512C192.935 119.512 187.825 118.685 183.348 117.03C178.871 115.375 174.539 113.575 170.354 111.628C163.833 116.884 155.462 119.512 145.242 119.512C141.543 119.512 138.721 118.782 136.774 117.322C134.925 115.765 134 114.11 134 112.358C134 111.093 134.341 109.827 135.022 108.562C135.801 107.199 136.871 106.031 138.234 105.058C139.694 103.987 141.397 103.111 143.344 102.43C145.291 101.749 147.481 101.408 149.914 101.408C153.71 101.408 157.36 101.943 160.864 103.014C164.465 104.085 168.115 105.301 171.814 106.664C176.194 101.019 180.039 91.9667 183.348 79.508C185.489 71.5267 187.971 64.2267 190.794 57.608C193.714 50.892 196.926 45.198 200.43 40.526C204.031 35.7567 207.973 32.058 212.256 29.43C216.539 26.802 221.113 25.488 225.98 25.488ZM149.914 116.446C153.613 116.446 156.922 116.008 159.842 115.132C162.762 114.256 165.487 112.747 168.018 110.606C164.611 108.951 161.107 107.54 157.506 106.372C154.002 105.204 150.109 104.62 145.826 104.62C143.101 104.62 141.154 105.058 139.986 105.934C138.818 106.81 138.234 107.929 138.234 109.292C138.234 111.239 139.256 112.942 141.3 114.402C143.344 115.765 146.215 116.446 149.914 116.446Z" fill="#D0CEB8"/>
</svg>
